<?xml version="1.0" encoding="UTF-8" standalone="no"?>
<!-- Created with Inkscape (http://www.inkscape.org/) -->

<svg
   width="64"
   height="64"
   viewBox="0 0 16.933332 16.933334"
   version="1.1"
   id="svg4740"
   inkscape:version="1.2 (dc2aedaf03, 2022-05-15)"
   sodipodi:docname="lock_closed.svg"
   inkscape:export-filename="..\img\lock_closed.png"
   inkscape:export-xdpi="60"
   inkscape:export-ydpi="60"
   xmlns:inkscape="http://www.inkscape.org/namespaces/inkscape"
   xmlns:sodipodi="http://sodipodi.sourceforge.net/DTD/sodipodi-0.dtd"
   xmlns="http://www.w3.org/2000/svg"
   xmlns:svg="http://www.w3.org/2000/svg">
  <sodipodi:namedview
     id="namedview4742"
     pagecolor="#ffffff"
     bordercolor="#666666"
     borderopacity="1.0"
     inkscape:showpageshadow="2"
     inkscape:pageopacity="0.0"
     inkscape:pagecheckerboard="0"
     inkscape:deskcolor="#d1d1d1"
     inkscape:document-units="px"
     showgrid="false"
     inkscape:zoom="13.011796"
     inkscape:cx="22.325896"
     inkscape:cy="35.583097"
     inkscape:window-width="1718"
     inkscape:window-height="1401"
     inkscape:window-x="0"
     inkscape:window-y="0"
     inkscape:window-maximized="1"
     inkscape:current-layer="layer1" />
  <defs
     id="defs4737">
    <inkscape:path-effect
       effect="spiro"
       id="path-effect1996"
       is_visible="true"
       lpeversion="1" />
    <inkscape:path-effect
       effect="simplify"
       id="path-effect1994"
       is_visible="true"
       lpeversion="1"
       steps="1"
       threshold="0.007"
       smooth_angles="360"
       helper_size="0"
       simplify_individual_paths="false"
       simplify_just_coalesce="false" />
  </defs>
  <g
     inkscape:groupmode="layer"
     id="layer2"
     inkscape:label="BG">
    <rect
       style="opacity:0.996;fill:#9141ac;fill-opacity:1;stroke:none;stroke-width:0;stroke-linecap:round;stroke-linejoin:round;stroke-dasharray:none"
       id="rect1066"
       width="16.933332"
       height="16.933332"
       x="0"
       y="0" />
  </g>
  <g
     inkscape:label="Layer 1"
     inkscape:groupmode="layer"
     id="layer1">
    <path
       id="rect474"
       style="opacity:0.996;fill:#ffffff;stroke-width:1.96294371;stroke-linecap:round;stroke-linejoin:round;stroke:none;stroke-dasharray:none"
       d="m 4.3465043,5.5847322 c -0.9433872,0 -1.7032551,0.7593512 -1.7032551,1.7027384 v 6.6187164 c 0,0.943388 0.7598679,1.703256 1.7032551,1.703256 h 8.2403237 c 0.943388,0 1.703256,-0.759868 1.703256,-1.703256 V 7.2874706 c 0,-0.9433872 -0.759868,-1.7027384 -1.703256,-1.7027384 z M 8.4666662,8.2274649 A 1.6369039,1.6369039 0 0 1 10.103776,9.8645745 1.6369039,1.6369039 0 0 1 9.1984045,11.328567 v 0.904854 c 0,0.4055 -0.3262395,0.732772 -0.7317383,0.732772 -0.405499,0 -0.7317383,-0.327272 -0.7317383,-0.732772 V 11.328567 A 1.6369039,1.6369039 0 0 1 6.8295569,9.8645745 1.6369039,1.6369039 0 0 1 8.4666662,8.2274649 Z"
       inkscape:label="Lock" />
    <path
       id="path1648"
       style="opacity:0.996;fill:none;stroke:#ffffff;stroke-width:1.5875;stroke-linecap:round;stroke-linejoin:round;stroke-dasharray:none;stroke-opacity:1"
       d="M 5.171575,6.6632046 A 3.4670925,3.4670925 0 0 1 4.9995739,5.584732 3.4670925,3.4670925 0 0 1 8.4666664,2.1176395 3.4670925,3.4670925 0 0 1 11.933759,5.584732 v 0 a 3.4670925,3.4670925 0 0 1 -0.172001,1.0784726"
       inkscape:label="Latch" />
  </g>
</svg>
